<?xml version="1.0" encoding="UTF-8" standalone="no"?>
<!DOCTYPE svg PUBLIC "-//W3C//DTD SVG 1.1//EN"
 "http://www.w3.org/Graphics/SVG/1.1/DTD/svg11.dtd">
<!-- Generated by graphviz version 2.38.0 (20140413.2041)
 -->
<!-- Title: include/irrpoly/checker.hpp Pages: 1 -->
<svg width="161pt" height="252pt"
 viewBox="0.00 0.00 161.00 252.00" xmlns="http://www.w3.org/2000/svg" xmlns:xlink="http://www.w3.org/1999/xlink">
<g id="graph0" class="graph" transform="scale(1 1) rotate(0) translate(4 248)">
<title>include/irrpoly/checker.hpp</title>
<polygon fill="white" stroke="none" points="-4,4 -4,-248 157,-248 157,4 -4,4"/>
<!-- Node1 -->
<g id="node1" class="node"><title>Node1</title>
<polygon fill="#bfbfbf" stroke="black" points="10,-224.5 10,-243.5 143,-243.5 143,-224.5 10,-224.5"/>
<text text-anchor="middle" x="76.5" y="-231.5" font-family="Helvetica,sans-Serif" font-size="10.00">include/irrpoly/checker.hpp</text>
</g>
<!-- Node2 -->
<g id="node2" class="node"><title>Node2</title>
<g id="a_node2"><a xlink:href="polynomialgf_8hpp.html" target="_top" xlink:title="include/irrpoly/polynomialgf.hpp">
<polygon fill="white" stroke="black" points="0,-168.5 0,-187.5 153,-187.5 153,-168.5 0,-168.5"/>
<text text-anchor="middle" x="76.5" y="-175.5" font-family="Helvetica,sans-Serif" font-size="10.00">include/irrpoly/polynomialgf.hpp</text>
</a>
</g>
</g>
<!-- Node1&#45;&gt;Node2 -->
<g id="edge1" class="edge"><title>Node1&#45;&gt;Node2</title>
<path fill="none" stroke="midnightblue" d="M76.5,-213.805C76.5,-204.91 76.5,-194.78 76.5,-187.751"/>
<polygon fill="midnightblue" stroke="midnightblue" points="73.0001,-214.083 76.5,-224.083 80.0001,-214.083 73.0001,-214.083"/>
</g>
<!-- Node3 -->
<g id="node3" class="node"><title>Node3</title>
<g id="a_node3"><a xlink:href="niederreiter2_8hpp.html" target="_top" xlink:title="include/niederreiter2.hpp">
<polygon fill="white" stroke="black" points="15.5,-112.5 15.5,-131.5 137.5,-131.5 137.5,-112.5 15.5,-112.5"/>
<text text-anchor="middle" x="76.5" y="-119.5" font-family="Helvetica,sans-Serif" font-size="10.00">include/niederreiter2.hpp</text>
</a>
</g>
</g>
<!-- Node2&#45;&gt;Node3 -->
<g id="edge2" class="edge"><title>Node2&#45;&gt;Node3</title>
<path fill="none" stroke="midnightblue" d="M76.5,-157.805C76.5,-148.91 76.5,-138.78 76.5,-131.751"/>
<polygon fill="midnightblue" stroke="midnightblue" points="73.0001,-158.083 76.5,-168.083 80.0001,-158.083 73.0001,-158.083"/>
</g>
<!-- Node4 -->
<g id="node4" class="node"><title>Node4</title>
<g id="a_node4"><a xlink:href="tests_8hpp.html" target="_top" xlink:title="tests/tests.hpp">
<polygon fill="white" stroke="black" points="35.5,-56.5 35.5,-75.5 117.5,-75.5 117.5,-56.5 35.5,-56.5"/>
<text text-anchor="middle" x="76.5" y="-63.5" font-family="Helvetica,sans-Serif" font-size="10.00">tests/tests.hpp</text>
</a>
</g>
</g>
<!-- Node3&#45;&gt;Node4 -->
<g id="edge3" class="edge"><title>Node3&#45;&gt;Node4</title>
<path fill="none" stroke="midnightblue" d="M76.5,-101.805C76.5,-92.9102 76.5,-82.7798 76.5,-75.7511"/>
<polygon fill="midnightblue" stroke="midnightblue" points="73.0001,-102.083 76.5,-112.083 80.0001,-102.083 73.0001,-102.083"/>
</g>
<!-- Node5 -->
<g id="node5" class="node"><title>Node5</title>
<g id="a_node5"><a xlink:href="main_8cpp.html" target="_top" xlink:title="tests/main.cpp">
<polygon fill="white" stroke="black" points="36,-0.5 36,-19.5 117,-19.5 117,-0.5 36,-0.5"/>
<text text-anchor="middle" x="76.5" y="-7.5" font-family="Helvetica,sans-Serif" font-size="10.00">tests/main.cpp</text>
</a>
</g>
</g>
<!-- Node4&#45;&gt;Node5 -->
<g id="edge4" class="edge"><title>Node4&#45;&gt;Node5</title>
<path fill="none" stroke="midnightblue" d="M76.5,-45.8045C76.5,-36.9102 76.5,-26.7798 76.5,-19.7511"/>
<polygon fill="midnightblue" stroke="midnightblue" points="73.0001,-46.083 76.5,-56.083 80.0001,-46.083 73.0001,-46.083"/>
</g>
</g>
</svg>
