<?xml version="1.0" encoding="UTF-8" standalone="no"?>
<!DOCTYPE svg PUBLIC "-//W3C//DTD SVG 1.1//EN"
 "http://www.w3.org/Graphics/SVG/1.1/DTD/svg11.dtd">
<!-- Generated by graphviz version 2.47.1 (20210421.1823)
 -->
<!-- Title: Niederreiter Pages: 1 -->
<svg width="75pt" height="140pt"
 viewBox="0.00 0.00 75.00 140.00" xmlns="http://www.w3.org/2000/svg" xmlns:xlink="http://www.w3.org/1999/xlink">
<g id="graph0" class="graph" transform="scale(1 1) rotate(0) translate(4 136)">
<title>Niederreiter</title>
<polygon fill="white" stroke="transparent" points="-4,4 -4,-136 71,-136 71,4 -4,4"/>
<!-- Node1 -->
<g id="node1" class="node">
<title>Node1</title>
<g id="a_node1"><a xlink:title=" ">
<polygon fill="#bfbfbf" stroke="black" points="0,-56.5 0,-75.5 67,-75.5 67,-56.5 0,-56.5"/>
<text text-anchor="middle" x="33.5" y="-63.5" font-family="Helvetica,sans-Serif" font-size="10.00">Niederreiter</text>
</a>
</g>
</g>
<!-- Node3 -->
<g id="node3" class="node">
<title>Node3</title>
<g id="a_node3"><a xlink:href="classtms_1_1_sobol.html" target="_top" xlink:title=" ">
<polygon fill="white" stroke="black" points="13,-0.5 13,-19.5 54,-19.5 54,-0.5 13,-0.5"/>
<text text-anchor="middle" x="33.5" y="-7.5" font-family="Helvetica,sans-Serif" font-size="10.00">Sobol</text>
</a>
</g>
</g>
<!-- Node1&#45;&gt;Node3 -->
<g id="edge2" class="edge">
<title>Node1&#45;&gt;Node3</title>
<path fill="none" stroke="midnightblue" d="M33.5,-45.8C33.5,-36.91 33.5,-26.78 33.5,-19.75"/>
<polygon fill="midnightblue" stroke="midnightblue" points="30,-46.08 33.5,-56.08 37,-46.08 30,-46.08"/>
</g>
<!-- Node2 -->
<g id="node2" class="node">
<title>Node2</title>
<g id="a_node2"><a xlink:href="classtms_1_1_digital_net.html" target="_top" xlink:title=" ">
<polygon fill="white" stroke="black" points="4,-112.5 4,-131.5 63,-131.5 63,-112.5 4,-112.5"/>
<text text-anchor="middle" x="33.5" y="-119.5" font-family="Helvetica,sans-Serif" font-size="10.00">DigitalNet</text>
</a>
</g>
</g>
<!-- Node2&#45;&gt;Node1 -->
<g id="edge1" class="edge">
<title>Node2&#45;&gt;Node1</title>
<path fill="none" stroke="midnightblue" d="M33.5,-101.8C33.5,-92.91 33.5,-82.78 33.5,-75.75"/>
<polygon fill="midnightblue" stroke="midnightblue" points="30,-102.08 33.5,-112.08 37,-102.08 30,-102.08"/>
</g>
</g>
</svg>
