<?xml version="1.0" encoding="UTF-8" standalone="no"?>
<!DOCTYPE svg PUBLIC "-//W3C//DTD SVG 1.1//EN"
 "http://www.w3.org/Graphics/SVG/1.1/DTD/svg11.dtd">
<!-- Generated by graphviz version 2.44.0 ()
 -->
<!-- Title: include/tms&#45;nets Pages: 1 -->
<svg width="112pt" height="183pt"
 viewBox="0.00 0.00 112.00 183.00" xmlns="http://www.w3.org/2000/svg" xmlns:xlink="http://www.w3.org/1999/xlink">
<g id="graph0" class="graph" transform="scale(1 1) rotate(0) translate(4 179)">
<title>include/tms&#45;nets</title>
<polygon fill="white" stroke="transparent" points="-4,4 -4,-179 108,-179 108,4 -4,4"/>
<g id="clust1" class="cluster">
<title>clusterdir_d44c64559bbebec7f509842c48db8b23</title>
<g id="a_clust1"><a xlink:href="dir_d44c64559bbebec7f509842c48db8b23.html" target="_top" xlink:title="include">
<polygon fill="#ddddee" stroke="black" points="8,-8 8,-167 96,-167 96,-8 8,-8"/>
<text text-anchor="middle" x="52" y="-155" font-family="Helvetica,sans-Serif" font-size="10.00">include</text>
</a>
</g>
</g>
<g id="clust2" class="cluster">
<title>clusterdir_90566915ee72175c2d8a7b406e20c183</title>
<g id="a_clust2"><a xlink:href="dir_90566915ee72175c2d8a7b406e20c183.html" target="_top">
<polygon fill="#eeeeff" stroke="black" points="16,-16 16,-140 88,-140 88,-16 16,-16"/>
</a>
</g>
</g>
<!-- dir_90566915ee72175c2d8a7b406e20c183 -->
<g id="node1" class="node">
<title>dir_90566915ee72175c2d8a7b406e20c183</title>
<text text-anchor="middle" x="52" y="-111.5" font-family="Helvetica,sans-Serif" font-size="10.00">tms&#45;nets</text>
</g>
<!-- dir_7dcbeab341e6b5fbed3ee39a089a3125 -->
<g id="node2" class="node">
<title>dir_7dcbeab341e6b5fbed3ee39a089a3125</title>
<g id="a_node2"><a xlink:href="dir_7dcbeab341e6b5fbed3ee39a089a3125.html" target="_top" xlink:title="details">
<polygon fill="white" stroke="black" points="79,-60 25,-60 25,-24 79,-24 79,-60"/>
<text text-anchor="middle" x="52" y="-39.5" font-family="Helvetica,sans-Serif" font-size="10.00">details</text>
</a>
</g>
</g>
<!-- dir_90566915ee72175c2d8a7b406e20c183&#45;&gt;dir_7dcbeab341e6b5fbed3ee39a089a3125 -->
<g id="edge1" class="edge">
<title>dir_90566915ee72175c2d8a7b406e20c183&#45;&gt;dir_7dcbeab341e6b5fbed3ee39a089a3125</title>
<path fill="none" stroke="black" d="M52,-95.7C52,-87.98 52,-78.71 52,-70.11"/>
<polygon fill="black" stroke="black" points="55.5,-70.1 52,-60.1 48.5,-70.1 55.5,-70.1"/>
<g id="a_edge1&#45;headlabel"><a xlink:href="dir_000001_000002.html" target="_top" xlink:title="1">
<text text-anchor="middle" x="58.34" y="-71.2" font-family="Helvetica,sans-Serif" font-size="10.00">1</text>
</a>
</g>
</g>
</g>
</svg>
