<?xml version="1.0" encoding="UTF-8" standalone="no"?>
<!DOCTYPE svg PUBLIC "-//W3C//DTD SVG 1.1//EN"
 "http://www.w3.org/Graphics/SVG/1.1/DTD/svg11.dtd">
<!-- Generated by graphviz version 2.44.0 ()
 -->
<!-- Title: include/tms&#45;nets/details/gf2poly.hpp Pages: 1 -->
<svg width="155pt" height="106pt"
 viewBox="0.00 0.00 155.00 106.00" xmlns="http://www.w3.org/2000/svg" xmlns:xlink="http://www.w3.org/1999/xlink">
<g id="graph0" class="graph" transform="scale(1 1) rotate(0) translate(4 102)">
<title>include/tms&#45;nets/details/gf2poly.hpp</title>
<polygon fill="white" stroke="transparent" points="-4,4 -4,-102 151,-102 151,4 -4,4"/>
<!-- Node1 -->
<g id="node1" class="node">
<title>Node1</title>
<g id="a_node1"><a xlink:title=" ">
<polygon fill="#bfbfbf" stroke="black" points="27,-67.5 27,-97.5 147,-97.5 147,-67.5 27,-67.5"/>
<text text-anchor="start" x="35" y="-85.5" font-family="Helvetica,sans-Serif" font-size="10.00">include/tms&#45;nets/details</text>
<text text-anchor="middle" x="87" y="-74.5" font-family="Helvetica,sans-Serif" font-size="10.00">/gf2poly.hpp</text>
</a>
</g>
</g>
<!-- Node2 -->
<g id="node2" class="node">
<title>Node2</title>
<g id="a_node2"><a xlink:title=" ">
<polygon fill="white" stroke="#bfbfbf" points="0,-0.5 0,-30.5 92,-30.5 92,-0.5 0,-0.5"/>
<text text-anchor="start" x="8" y="-18.5" font-family="Helvetica,sans-Serif" font-size="10.00">../thirdparty/irrpoly</text>
<text text-anchor="middle" x="46" y="-7.5" font-family="Helvetica,sans-Serif" font-size="10.00">/gfcheck.hpp</text>
</a>
</g>
</g>
<!-- Node1&#45;&gt;Node2 -->
<g id="edge1" class="edge">
<title>Node1&#45;&gt;Node2</title>
<path fill="none" stroke="midnightblue" d="M78.1,-67.4C72.89,-59.13 66.19,-48.51 60.26,-39.1"/>
<polygon fill="midnightblue" stroke="midnightblue" points="63.17,-37.17 54.88,-30.58 57.25,-40.9 63.17,-37.17"/>
</g>
<!-- Node3 -->
<g id="node3" class="node">
<title>Node3</title>
<g id="a_node3"><a xlink:title=" ">
<polygon fill="white" stroke="#bfbfbf" points="110.5,-6 110.5,-25 145.5,-25 145.5,-6 110.5,-6"/>
<text text-anchor="middle" x="128" y="-13" font-family="Helvetica,sans-Serif" font-size="10.00">map</text>
</a>
</g>
</g>
<!-- Node1&#45;&gt;Node3 -->
<g id="edge2" class="edge">
<title>Node1&#45;&gt;Node3</title>
<path fill="none" stroke="midnightblue" d="M95.9,-67.4C102.1,-57.56 110.42,-44.38 117.03,-33.89"/>
<polygon fill="midnightblue" stroke="midnightblue" points="120.14,-35.52 122.52,-25.19 114.22,-31.79 120.14,-35.52"/>
</g>
</g>
</svg>
