<?xml version="1.0" encoding="UTF-8" standalone="no"?>
<!DOCTYPE svg PUBLIC "-//W3C//DTD SVG 1.1//EN"
 "http://www.w3.org/Graphics/SVG/1.1/DTD/svg11.dtd">
<!-- Generated by graphviz version 2.38.0 (20140413.2041)
 -->
<!-- Title: tests/main.cpp Pages: 1 -->
<svg width="1088pt" height="308pt"
 viewBox="0.00 0.00 1088.00 308.00" xmlns="http://www.w3.org/2000/svg" xmlns:xlink="http://www.w3.org/1999/xlink">
<g id="graph0" class="graph" transform="scale(1 1) rotate(0) translate(4 304)">
<title>tests/main.cpp</title>
<polygon fill="white" stroke="none" points="-4,4 -4,-304 1084,-304 1084,4 -4,4"/>
<!-- Node1 -->
<g id="node1" class="node"><title>Node1</title>
<polygon fill="#bfbfbf" stroke="black" points="712,-280.5 712,-299.5 793,-299.5 793,-280.5 712,-280.5"/>
<text text-anchor="middle" x="752.5" y="-287.5" font-family="Helvetica,sans-Serif" font-size="10.00">tests/main.cpp</text>
</g>
<!-- Node2 -->
<g id="node2" class="node"><title>Node2</title>
<g id="a_node2"><a xlink:href="tests_8hpp.html" target="_top" xlink:title="tests.hpp">
<polygon fill="white" stroke="black" points="724,-224.5 724,-243.5 781,-243.5 781,-224.5 724,-224.5"/>
<text text-anchor="middle" x="752.5" y="-231.5" font-family="Helvetica,sans-Serif" font-size="10.00">tests.hpp</text>
</a>
</g>
</g>
<!-- Node1&#45;&gt;Node2 -->
<g id="edge1" class="edge"><title>Node1&#45;&gt;Node2</title>
<path fill="none" stroke="midnightblue" d="M752.5,-280.083C752.5,-273.006 752.5,-262.861 752.5,-253.986"/>
<polygon fill="midnightblue" stroke="midnightblue" points="756,-253.751 752.5,-243.751 749,-253.751 756,-253.751"/>
</g>
<!-- Node3 -->
<g id="node3" class="node"><title>Node3</title>
<g id="a_node3"><a xlink:href="niederreiter2_8hpp.html" target="_top" xlink:title="../include/niederreiter2.hpp">
<polygon fill="white" stroke="black" points="578,-168.5 578,-187.5 709,-187.5 709,-168.5 578,-168.5"/>
<text text-anchor="middle" x="643.5" y="-175.5" font-family="Helvetica,sans-Serif" font-size="10.00">../include/niederreiter2.hpp</text>
</a>
</g>
</g>
<!-- Node2&#45;&gt;Node3 -->
<g id="edge2" class="edge"><title>Node2&#45;&gt;Node3</title>
<path fill="none" stroke="midnightblue" d="M734.987,-224.324C717.428,-215.625 690.169,-202.12 669.969,-192.113"/>
<polygon fill="midnightblue" stroke="midnightblue" points="671.484,-188.958 660.969,-187.655 668.376,-195.23 671.484,-188.958"/>
</g>
<!-- Node26 -->
<g id="node26" class="node"><title>Node26</title>
<g id="a_node26"><a xlink:href="tests__routines_8hpp.html" target="_top" xlink:title="tests_routines.hpp">
<polygon fill="white" stroke="black" points="813,-168.5 813,-187.5 910,-187.5 910,-168.5 813,-168.5"/>
<text text-anchor="middle" x="861.5" y="-175.5" font-family="Helvetica,sans-Serif" font-size="10.00">tests_routines.hpp</text>
</a>
</g>
</g>
<!-- Node2&#45;&gt;Node26 -->
<g id="edge35" class="edge"><title>Node2&#45;&gt;Node26</title>
<path fill="none" stroke="midnightblue" d="M770.013,-224.324C787.572,-215.625 814.831,-202.12 835.031,-192.113"/>
<polygon fill="midnightblue" stroke="midnightblue" points="836.624,-195.23 844.031,-187.655 833.516,-188.958 836.624,-195.23"/>
</g>
<!-- Node4 -->
<g id="node4" class="node"><title>Node4</title>
<g id="a_node4"><a xlink:href="polynomialgf_8hpp.html" target="_top" xlink:title="irrpoly/polynomialgf.hpp">
<polygon fill="white" stroke="black" points="584,-112.5 584,-131.5 703,-131.5 703,-112.5 584,-112.5"/>
<text text-anchor="middle" x="643.5" y="-119.5" font-family="Helvetica,sans-Serif" font-size="10.00">irrpoly/polynomialgf.hpp</text>
</a>
</g>
</g>
<!-- Node3&#45;&gt;Node4 -->
<g id="edge3" class="edge"><title>Node3&#45;&gt;Node4</title>
<path fill="none" stroke="midnightblue" d="M643.5,-168.083C643.5,-161.006 643.5,-150.861 643.5,-141.986"/>
<polygon fill="midnightblue" stroke="midnightblue" points="647,-141.751 643.5,-131.751 640,-141.751 647,-141.751"/>
</g>
<!-- Node5 -->
<g id="node5" class="node"><title>Node5</title>
<polygon fill="white" stroke="#bfbfbf" points="417.5,-0.5 417.5,-19.5 473.5,-19.5 473.5,-0.5 417.5,-0.5"/>
<text text-anchor="middle" x="445.5" y="-7.5" font-family="Helvetica,sans-Serif" font-size="10.00">algorithm</text>
</g>
<!-- Node3&#45;&gt;Node5 -->
<g id="edge29" class="edge"><title>Node3&#45;&gt;Node5</title>
<path fill="none" stroke="midnightblue" d="M577.894,-168.491C532.658,-161.226 477.997,-149.2 462.5,-132 437.144,-103.857 438.89,-56.0997 442.266,-29.7865"/>
<polygon fill="midnightblue" stroke="midnightblue" points="445.765,-30.0556 443.789,-19.6466 438.843,-29.0157 445.765,-30.0556"/>
</g>
<!-- Node6 -->
<g id="node6" class="node"><title>Node6</title>
<polygon fill="white" stroke="#bfbfbf" points="697.5,-56.5 697.5,-75.5 741.5,-75.5 741.5,-56.5 697.5,-56.5"/>
<text text-anchor="middle" x="719.5" y="-63.5" font-family="Helvetica,sans-Serif" font-size="10.00">cmath</text>
</g>
<!-- Node3&#45;&gt;Node6 -->
<g id="edge31" class="edge"><title>Node3&#45;&gt;Node6</title>
<path fill="none" stroke="midnightblue" d="M665.322,-168.498C680.875,-161.237 700.844,-149.212 711.5,-132 720.01,-118.254 721.534,-99.726 721.208,-85.9681"/>
<polygon fill="midnightblue" stroke="midnightblue" points="724.688,-85.5224 720.611,-75.7433 717.7,-85.9302 724.688,-85.5224"/>
</g>
<!-- Node8 -->
<g id="node8" class="node"><title>Node8</title>
<polygon fill="white" stroke="#bfbfbf" points="653.5,-0.5 653.5,-19.5 697.5,-19.5 697.5,-0.5 653.5,-0.5"/>
<text text-anchor="middle" x="675.5" y="-7.5" font-family="Helvetica,sans-Serif" font-size="10.00">vector</text>
</g>
<!-- Node3&#45;&gt;Node8 -->
<g id="edge30" class="edge"><title>Node3&#45;&gt;Node8</title>
<path fill="none" stroke="midnightblue" d="M671.251,-168.392C689.968,-161.31 713.989,-149.552 729.5,-132 747.102,-112.082 745.757,-102.155 750.5,-76 752.086,-67.2537 754.88,-63.7351 750.5,-56 741.207,-39.586 723.273,-28.506 707.273,-21.4481"/>
<polygon fill="midnightblue" stroke="midnightblue" points="708.238,-18.0631 697.655,-17.5617 705.616,-24.5533 708.238,-18.0631"/>
</g>
<!-- Node14 -->
<g id="node14" class="node"><title>Node14</title>
<polygon fill="white" stroke="#bfbfbf" points="337.5,-0.5 337.5,-19.5 399.5,-19.5 399.5,-0.5 337.5,-0.5"/>
<text text-anchor="middle" x="368.5" y="-7.5" font-family="Helvetica,sans-Serif" font-size="10.00">type_traits</text>
</g>
<!-- Node3&#45;&gt;Node14 -->
<g id="edge33" class="edge"><title>Node3&#45;&gt;Node14</title>
<path fill="none" stroke="midnightblue" d="M577.689,-174.416C536.776,-169.966 484.851,-158.884 446.5,-132 409.446,-106.025 385.789,-56.2679 375.114,-29.3606"/>
<polygon fill="midnightblue" stroke="midnightblue" points="378.255,-27.7735 371.439,-19.6622 371.709,-30.2536 378.255,-27.7735"/>
</g>
<!-- Node21 -->
<g id="node21" class="node"><title>Node21</title>
<polygon fill="white" stroke="#bfbfbf" points="1021,-0.5 1021,-19.5 1080,-19.5 1080,-0.5 1021,-0.5"/>
<text text-anchor="middle" x="1050.5" y="-7.5" font-family="Helvetica,sans-Serif" font-size="10.00">functional</text>
</g>
<!-- Node3&#45;&gt;Node21 -->
<g id="edge34" class="edge"><title>Node3&#45;&gt;Node21</title>
<path fill="none" stroke="midnightblue" d="M664.525,-168.425C731.649,-141.047 941.018,-55.6535 1019.96,-23.4545"/>
<polygon fill="midnightblue" stroke="midnightblue" points="1021.42,-26.6411 1029.36,-19.6237 1018.78,-20.1595 1021.42,-26.6411"/>
</g>
<!-- Node24 -->
<g id="node24" class="node"><title>Node24</title>
<polygon fill="white" stroke="#bfbfbf" points="472,-112.5 472,-131.5 513,-131.5 513,-112.5 472,-112.5"/>
<text text-anchor="middle" x="492.5" y="-119.5" font-family="Helvetica,sans-Serif" font-size="10.00">string</text>
</g>
<!-- Node3&#45;&gt;Node24 -->
<g id="edge28" class="edge"><title>Node3&#45;&gt;Node24</title>
<path fill="none" stroke="midnightblue" d="M619.574,-168.444C593.389,-159.079 551.35,-144.046 522.86,-133.857"/>
<polygon fill="midnightblue" stroke="midnightblue" points="523.991,-130.545 513.397,-130.473 521.634,-137.136 523.991,-130.545"/>
</g>
<!-- Node25 -->
<g id="node25" class="node"><title>Node25</title>
<polygon fill="white" stroke="#bfbfbf" points="531,-112.5 531,-131.5 566,-131.5 566,-112.5 531,-112.5"/>
<text text-anchor="middle" x="548.5" y="-119.5" font-family="Helvetica,sans-Serif" font-size="10.00">map</text>
</g>
<!-- Node3&#45;&gt;Node25 -->
<g id="edge32" class="edge"><title>Node3&#45;&gt;Node25</title>
<path fill="none" stroke="midnightblue" d="M628.237,-168.324C613.279,-159.822 590.245,-146.729 572.773,-136.797"/>
<polygon fill="midnightblue" stroke="midnightblue" points="574.149,-133.553 563.726,-131.655 570.69,-139.639 574.149,-133.553"/>
</g>
<!-- Node4&#45;&gt;Node5 -->
<g id="edge4" class="edge"><title>Node4&#45;&gt;Node5</title>
<path fill="none" stroke="midnightblue" d="M624.327,-112.43C605.316,-103.768 575.494,-89.735 550.5,-76 520.875,-59.7203 487.913,-38.8378 466.962,-25.1973"/>
<polygon fill="midnightblue" stroke="midnightblue" points="468.782,-22.206 458.499,-19.6558 464.948,-28.0622 468.782,-22.206"/>
</g>
<!-- Node4&#45;&gt;Node6 -->
<g id="edge5" class="edge"><title>Node4&#45;&gt;Node6</title>
<path fill="none" stroke="midnightblue" d="M655.711,-112.324C667.276,-104.107 684.875,-91.6017 698.661,-81.8069"/>
<polygon fill="midnightblue" stroke="midnightblue" points="700.943,-84.4791 707.067,-75.8339 696.888,-78.7729 700.943,-84.4791"/>
</g>
<!-- Node7 -->
<g id="node7" class="node"><title>Node7</title>
<polygon fill="white" stroke="#bfbfbf" points="260,-0.5 260,-19.5 319,-19.5 319,-0.5 260,-0.5"/>
<text text-anchor="middle" x="289.5" y="-7.5" font-family="Helvetica,sans-Serif" font-size="10.00">stdexcept</text>
</g>
<!-- Node4&#45;&gt;Node7 -->
<g id="edge6" class="edge"><title>Node4&#45;&gt;Node7</title>
<path fill="none" stroke="midnightblue" d="M616.017,-112.46C553.154,-92.9264 398.798,-44.9626 327.159,-22.7018"/>
<polygon fill="midnightblue" stroke="midnightblue" points="327.798,-19.2355 317.21,-19.6104 325.721,-25.9202 327.798,-19.2355"/>
</g>
<!-- Node4&#45;&gt;Node8 -->
<g id="edge7" class="edge"><title>Node4&#45;&gt;Node8</title>
<path fill="none" stroke="midnightblue" d="M646.011,-112.368C651.198,-94.5366 663.196,-53.2953 670.185,-29.2717"/>
<polygon fill="midnightblue" stroke="midnightblue" points="673.568,-30.1711 673.001,-19.5914 666.847,-28.2157 673.568,-30.1711"/>
</g>
<!-- Node9 -->
<g id="node9" class="node"><title>Node9</title>
<g id="a_node9"><a xlink:href="gf_8hpp.html" target="_top" xlink:title="gf.hpp">
<polygon fill="white" stroke="black" points="219.5,-56.5 219.5,-75.5 263.5,-75.5 263.5,-56.5 219.5,-56.5"/>
<text text-anchor="middle" x="241.5" y="-63.5" font-family="Helvetica,sans-Serif" font-size="10.00">gf.hpp</text>
</a>
</g>
</g>
<!-- Node4&#45;&gt;Node9 -->
<g id="edge8" class="edge"><title>Node4&#45;&gt;Node9</title>
<path fill="none" stroke="midnightblue" d="M583.883,-113.159C501.501,-102.311 357.066,-83.2434 304.5,-76 294.533,-74.6266 283.685,-73.0915 273.845,-71.6835"/>
<polygon fill="midnightblue" stroke="midnightblue" points="274.047,-68.1767 263.651,-70.2192 273.052,-75.1056 274.047,-68.1767"/>
</g>
<!-- Node15 -->
<g id="node15" class="node"><title>Node15</title>
<g id="a_node15"><a xlink:href="polynomial_8hpp_source.html" target="_top" xlink:title="polynomial.hpp">
<polygon fill="white" stroke="black" points="559.5,-56.5 559.5,-75.5 641.5,-75.5 641.5,-56.5 559.5,-56.5"/>
<text text-anchor="middle" x="600.5" y="-63.5" font-family="Helvetica,sans-Serif" font-size="10.00">polynomial.hpp</text>
</a>
</g>
</g>
<!-- Node4&#45;&gt;Node15 -->
<g id="edge16" class="edge"><title>Node4&#45;&gt;Node15</title>
<path fill="none" stroke="midnightblue" d="M636.399,-112.083C630.263,-104.377 621.23,-93.0333 613.761,-83.6531"/>
<polygon fill="midnightblue" stroke="midnightblue" points="616.436,-81.3936 607.468,-75.7511 610.96,-85.7542 616.436,-81.3936"/>
</g>
<!-- Node19 -->
<g id="node19" class="node"><title>Node19</title>
<g id="a_node19"><a xlink:href="checker_8hpp.html" target="_top" xlink:title="checker.hpp">
<polygon fill="white" stroke="black" points="797.5,-56.5 797.5,-75.5 867.5,-75.5 867.5,-56.5 797.5,-56.5"/>
<text text-anchor="middle" x="832.5" y="-63.5" font-family="Helvetica,sans-Serif" font-size="10.00">checker.hpp</text>
</a>
</g>
</g>
<!-- Node4&#45;&gt;Node19 -->
<g id="edge22" class="edge"><title>Node4&#45;&gt;Node19</title>
<path fill="none" stroke="midnightblue" d="M673.448,-112.444C705.658,-103.241 757.034,-88.5617 792.642,-78.3879"/>
<polygon fill="midnightblue" stroke="midnightblue" points="794.039,-81.629 802.692,-75.5164 792.116,-74.8984 794.039,-81.629"/>
</g>
<!-- Node9&#45;&gt;Node5 -->
<g id="edge9" class="edge"><title>Node9&#45;&gt;Node5</title>
<path fill="none" stroke="midnightblue" d="M263.72,-59.1183C298.255,-49.9767 365.229,-32.2481 407.532,-21.0503"/>
<polygon fill="midnightblue" stroke="midnightblue" points="408.689,-24.3646 417.461,-18.4222 406.898,-17.5977 408.689,-24.3646"/>
</g>
<!-- Node9&#45;&gt;Node7 -->
<g id="edge14" class="edge"><title>Node9&#45;&gt;Node7</title>
<path fill="none" stroke="midnightblue" d="M249.426,-56.083C256.346,-48.2982 266.565,-36.8015 274.952,-27.3665"/>
<polygon fill="midnightblue" stroke="midnightblue" points="277.694,-29.5505 281.721,-19.7511 272.462,-24.8999 277.694,-29.5505"/>
</g>
<!-- Node10 -->
<g id="node10" class="node"><title>Node10</title>
<polygon fill="white" stroke="#bfbfbf" points="67.5,-0.5 67.5,-19.5 105.5,-19.5 105.5,-0.5 67.5,-0.5"/>
<text text-anchor="middle" x="86.5" y="-7.5" font-family="Helvetica,sans-Serif" font-size="10.00">array</text>
</g>
<!-- Node9&#45;&gt;Node10 -->
<g id="edge10" class="edge"><title>Node9&#45;&gt;Node10</title>
<path fill="none" stroke="midnightblue" d="M219.292,-57.2631C191.917,-47.7259 145.336,-31.4977 115.253,-21.0171"/>
<polygon fill="midnightblue" stroke="midnightblue" points="116.329,-17.6859 105.735,-17.7011 114.026,-24.2962 116.329,-17.6859"/>
</g>
<!-- Node11 -->
<g id="node11" class="node"><title>Node11</title>
<polygon fill="white" stroke="#bfbfbf" points="123.5,-0.5 123.5,-19.5 169.5,-19.5 169.5,-0.5 123.5,-0.5"/>
<text text-anchor="middle" x="146.5" y="-7.5" font-family="Helvetica,sans-Serif" font-size="10.00">cstdint</text>
</g>
<!-- Node9&#45;&gt;Node11 -->
<g id="edge11" class="edge"><title>Node9&#45;&gt;Node11</title>
<path fill="none" stroke="midnightblue" d="M226.237,-56.324C211.279,-47.8215 188.245,-34.7288 170.773,-24.7975"/>
<polygon fill="midnightblue" stroke="midnightblue" points="172.149,-21.5534 161.726,-19.6545 168.69,-27.639 172.149,-21.5534"/>
</g>
<!-- Node12 -->
<g id="node12" class="node"><title>Node12</title>
<polygon fill="white" stroke="#bfbfbf" points="187.5,-0.5 187.5,-19.5 241.5,-19.5 241.5,-0.5 187.5,-0.5"/>
<text text-anchor="middle" x="214.5" y="-7.5" font-family="Helvetica,sans-Serif" font-size="10.00">iostream</text>
</g>
<!-- Node9&#45;&gt;Node12 -->
<g id="edge12" class="edge"><title>Node9&#45;&gt;Node12</title>
<path fill="none" stroke="midnightblue" d="M237.041,-56.083C233.346,-48.6913 227.977,-37.9533 223.406,-28.8111"/>
<polygon fill="midnightblue" stroke="midnightblue" points="226.478,-27.1301 218.876,-19.7511 220.217,-30.2606 226.478,-27.1301"/>
</g>
<!-- Node13 -->
<g id="node13" class="node"><title>Node13</title>
<polygon fill="white" stroke="#bfbfbf" points="0,-0.5 0,-19.5 49,-19.5 49,-0.5 0,-0.5"/>
<text text-anchor="middle" x="24.5" y="-7.5" font-family="Helvetica,sans-Serif" font-size="10.00">random</text>
</g>
<!-- Node9&#45;&gt;Node13 -->
<g id="edge13" class="edge"><title>Node9&#45;&gt;Node13</title>
<path fill="none" stroke="midnightblue" d="M219.497,-59.7221C186.778,-51.8455 123.129,-36.4138 58.8936,-20.0648"/>
<polygon fill="midnightblue" stroke="midnightblue" points="59.5555,-16.6217 49.0006,-17.5407 57.8249,-23.4044 59.5555,-16.6217"/>
</g>
<!-- Node9&#45;&gt;Node14 -->
<g id="edge15" class="edge"><title>Node9&#45;&gt;Node14</title>
<path fill="none" stroke="midnightblue" d="M261.624,-56.4435C282.524,-47.5566 315.435,-33.5632 339.216,-23.4514"/>
<polygon fill="midnightblue" stroke="midnightblue" points="340.638,-26.6504 348.471,-19.5164 337.898,-20.2085 340.638,-26.6504"/>
</g>
<!-- Node15&#45;&gt;Node5 -->
<g id="edge20" class="edge"><title>Node15&#45;&gt;Node5</title>
<path fill="none" stroke="midnightblue" d="M575.94,-56.4435C549.977,-47.3986 508.832,-33.064 479.703,-22.9158"/>
<polygon fill="midnightblue" stroke="midnightblue" points="480.54,-19.5013 469.945,-19.5164 478.237,-26.1116 480.54,-19.5013"/>
</g>
<!-- Node15&#45;&gt;Node8 -->
<g id="edge17" class="edge"><title>Node15&#45;&gt;Node8</title>
<path fill="none" stroke="midnightblue" d="M612.55,-56.324C623.963,-48.1066 641.331,-35.6017 654.935,-25.8069"/>
<polygon fill="midnightblue" stroke="midnightblue" points="657.16,-28.5174 663.231,-19.8339 653.07,-22.8366 657.16,-28.5174"/>
</g>
<!-- Node16 -->
<g id="node16" class="node"><title>Node16</title>
<polygon fill="white" stroke="#bfbfbf" points="716,-0.5 716,-19.5 765,-19.5 765,-0.5 716,-0.5"/>
<text text-anchor="middle" x="740.5" y="-7.5" font-family="Helvetica,sans-Serif" font-size="10.00">cassert</text>
</g>
<!-- Node15&#45;&gt;Node16 -->
<g id="edge18" class="edge"><title>Node15&#45;&gt;Node16</title>
<path fill="none" stroke="midnightblue" d="M622.683,-56.4435C645.928,-47.4776 682.649,-33.314 708.915,-23.1827"/>
<polygon fill="midnightblue" stroke="midnightblue" points="710.35,-26.3807 718.42,-19.5164 707.831,-19.8497 710.35,-26.3807"/>
</g>
<!-- Node17 -->
<g id="node17" class="node"><title>Node17</title>
<polygon fill="white" stroke="#bfbfbf" points="583.5,-0.5 583.5,-19.5 635.5,-19.5 635.5,-0.5 583.5,-0.5"/>
<text text-anchor="middle" x="609.5" y="-7.5" font-family="Helvetica,sans-Serif" font-size="10.00">ostream</text>
</g>
<!-- Node15&#45;&gt;Node17 -->
<g id="edge19" class="edge"><title>Node15&#45;&gt;Node17</title>
<path fill="none" stroke="midnightblue" d="M601.986,-56.083C603.179,-48.9272 604.894,-38.6353 606.385,-29.6911"/>
<polygon fill="midnightblue" stroke="midnightblue" points="609.85,-30.1904 608.041,-19.7511 602.945,-29.0396 609.85,-30.1904"/>
</g>
<!-- Node18 -->
<g id="node18" class="node"><title>Node18</title>
<polygon fill="white" stroke="#bfbfbf" points="492,-0.5 492,-19.5 565,-19.5 565,-0.5 492,-0.5"/>
<text text-anchor="middle" x="528.5" y="-7.5" font-family="Helvetica,sans-Serif" font-size="10.00">initializer_list</text>
</g>
<!-- Node15&#45;&gt;Node18 -->
<g id="edge21" class="edge"><title>Node15&#45;&gt;Node18</title>
<path fill="none" stroke="midnightblue" d="M588.932,-56.324C578.08,-48.1849 561.619,-35.8395 548.617,-26.0874"/>
<polygon fill="midnightblue" stroke="midnightblue" points="550.379,-23.0339 540.279,-19.8339 546.179,-28.6339 550.379,-23.0339"/>
</g>
<!-- Node19&#45;&gt;Node16 -->
<g id="edge24" class="edge"><title>Node19&#45;&gt;Node16</title>
<path fill="none" stroke="midnightblue" d="M817.719,-56.324C803.233,-47.8215 780.927,-34.7288 764.007,-24.7975"/>
<polygon fill="midnightblue" stroke="midnightblue" points="765.641,-21.6981 755.245,-19.6545 762.097,-27.735 765.641,-21.6981"/>
</g>
<!-- Node20 -->
<g id="node20" class="node"><title>Node20</title>
<polygon fill="white" stroke="#bfbfbf" points="896.5,-0.5 896.5,-19.5 940.5,-19.5 940.5,-0.5 896.5,-0.5"/>
<text text-anchor="middle" x="918.5" y="-7.5" font-family="Helvetica,sans-Serif" font-size="10.00">thread</text>
</g>
<!-- Node19&#45;&gt;Node20 -->
<g id="edge23" class="edge"><title>Node19&#45;&gt;Node20</title>
<path fill="none" stroke="midnightblue" d="M846.317,-56.324C859.733,-47.9002 880.324,-34.9709 896.086,-25.0741"/>
<polygon fill="midnightblue" stroke="midnightblue" points="898.109,-27.9364 904.717,-19.6545 894.387,-22.0081 898.109,-27.9364"/>
</g>
<!-- Node19&#45;&gt;Node21 -->
<g id="edge25" class="edge"><title>Node19&#45;&gt;Node21</title>
<path fill="none" stroke="midnightblue" d="M867.043,-56.4435C906.112,-46.7657 969.63,-31.0321 1010.73,-20.8503"/>
<polygon fill="midnightblue" stroke="midnightblue" points="1011.81,-24.1902 1020.67,-18.3884 1010.12,-17.3956 1011.81,-24.1902"/>
</g>
<!-- Node22 -->
<g id="node22" class="node"><title>Node22</title>
<polygon fill="white" stroke="#bfbfbf" points="958.5,-0.5 958.5,-19.5 1002.5,-19.5 1002.5,-0.5 958.5,-0.5"/>
<text text-anchor="middle" x="980.5" y="-7.5" font-family="Helvetica,sans-Serif" font-size="10.00">mutex</text>
</g>
<!-- Node19&#45;&gt;Node22 -->
<g id="edge26" class="edge"><title>Node19&#45;&gt;Node22</title>
<path fill="none" stroke="midnightblue" d="M855.951,-56.4435C880.923,-47.3322 920.606,-32.8531 948.453,-22.6929"/>
<polygon fill="midnightblue" stroke="midnightblue" points="949.933,-25.8786 958.127,-19.1629 947.534,-19.3027 949.933,-25.8786"/>
</g>
<!-- Node23 -->
<g id="node23" class="node"><title>Node23</title>
<polygon fill="white" stroke="#bfbfbf" points="783,-0.5 783,-19.5 878,-19.5 878,-0.5 783,-0.5"/>
<text text-anchor="middle" x="830.5" y="-7.5" font-family="Helvetica,sans-Serif" font-size="10.00">condition_variable</text>
</g>
<!-- Node19&#45;&gt;Node23 -->
<g id="edge27" class="edge"><title>Node19&#45;&gt;Node23</title>
<path fill="none" stroke="midnightblue" d="M832.17,-56.083C831.908,-49.0059 831.532,-38.8611 831.203,-29.9865"/>
<polygon fill="midnightblue" stroke="midnightblue" points="834.692,-29.6147 830.824,-19.7511 827.697,-29.8738 834.692,-29.6147"/>
</g>
<!-- Node27 -->
<g id="node27" class="node"><title>Node27</title>
<polygon fill="white" stroke="#bfbfbf" points="924,-112.5 924,-131.5 973,-131.5 973,-112.5 924,-112.5"/>
<text text-anchor="middle" x="948.5" y="-119.5" font-family="Helvetica,sans-Serif" font-size="10.00">stdint.h</text>
</g>
<!-- Node26&#45;&gt;Node27 -->
<g id="edge36" class="edge"><title>Node26&#45;&gt;Node27</title>
<path fill="none" stroke="midnightblue" d="M875.478,-168.324C889.05,-159.9 909.88,-146.971 925.825,-137.074"/>
<polygon fill="midnightblue" stroke="midnightblue" points="927.906,-139.902 934.557,-131.655 924.214,-133.954 927.906,-139.902"/>
</g>
</g>
</svg>
