<?xml version="1.0" encoding="UTF-8" standalone="no"?>
<!DOCTYPE svg PUBLIC "-//W3C//DTD SVG 1.1//EN"
 "http://www.w3.org/Graphics/SVG/1.1/DTD/svg11.dtd">
<!-- Generated by graphviz version 2.38.0 (20140413.2041)
 -->
<!-- Title: include/niederreiter2.hpp Pages: 1 -->
<svg width="1087pt" height="196pt"
 viewBox="0.00 0.00 1086.50 196.00" xmlns="http://www.w3.org/2000/svg" xmlns:xlink="http://www.w3.org/1999/xlink">
<g id="graph0" class="graph" transform="scale(1 1) rotate(0) translate(4 192)">
<title>include/niederreiter2.hpp</title>
<polygon fill="white" stroke="none" points="-4,4 -4,-192 1082.5,-192 1082.5,4 -4,4"/>
<!-- Node1 -->
<g id="node1" class="node"><title>Node1</title>
<polygon fill="#bfbfbf" stroke="black" points="623,-168.5 623,-187.5 745,-187.5 745,-168.5 623,-168.5"/>
<text text-anchor="middle" x="684" y="-175.5" font-family="Helvetica,sans-Serif" font-size="10.00">include/niederreiter2.hpp</text>
</g>
<!-- Node2 -->
<g id="node2" class="node"><title>Node2</title>
<g id="a_node2"><a xlink:href="polynomialgf_8hpp.html" target="_top" xlink:title="irrpoly/polynomialgf.hpp">
<polygon fill="white" stroke="black" points="541.5,-112.5 541.5,-131.5 660.5,-131.5 660.5,-112.5 541.5,-112.5"/>
<text text-anchor="middle" x="601" y="-119.5" font-family="Helvetica,sans-Serif" font-size="10.00">irrpoly/polynomialgf.hpp</text>
</a>
</g>
</g>
<!-- Node1&#45;&gt;Node2 -->
<g id="edge1" class="edge"><title>Node1&#45;&gt;Node2</title>
<path fill="none" stroke="midnightblue" d="M670.665,-168.324C657.838,-159.979 638.215,-147.212 623.06,-137.352"/>
<polygon fill="midnightblue" stroke="midnightblue" points="624.593,-134.174 614.302,-131.655 620.776,-140.042 624.593,-134.174"/>
</g>
<!-- Node3 -->
<g id="node3" class="node"><title>Node3</title>
<polygon fill="white" stroke="#bfbfbf" points="0,-0.5 0,-19.5 56,-19.5 56,-0.5 0,-0.5"/>
<text text-anchor="middle" x="28" y="-7.5" font-family="Helvetica,sans-Serif" font-size="10.00">algorithm</text>
</g>
<!-- Node1&#45;&gt;Node3 -->
<g id="edge27" class="edge"><title>Node1&#45;&gt;Node3</title>
<path fill="none" stroke="midnightblue" d="M622.661,-170.741C523.069,-159.366 320.929,-131.203 158,-76 118.584,-62.6451 75.9971,-39.5188 50.6856,-24.7549"/>
<polygon fill="midnightblue" stroke="midnightblue" points="52.2624,-21.6212 41.8732,-19.5437 48.6993,-27.6465 52.2624,-21.6212"/>
</g>
<!-- Node4 -->
<g id="node4" class="node"><title>Node4</title>
<polygon fill="white" stroke="#bfbfbf" points="817,-56.5 817,-75.5 861,-75.5 861,-56.5 817,-56.5"/>
<text text-anchor="middle" x="839" y="-63.5" font-family="Helvetica,sans-Serif" font-size="10.00">cmath</text>
</g>
<!-- Node1&#45;&gt;Node4 -->
<g id="edge29" class="edge"><title>Node1&#45;&gt;Node4</title>
<path fill="none" stroke="midnightblue" d="M727.179,-168.451C751.637,-161.836 781.536,-150.571 803,-132 817.444,-119.503 827.222,-99.7184 832.9,-85.2566"/>
<polygon fill="midnightblue" stroke="midnightblue" points="836.194,-86.4413 836.318,-75.8472 829.614,-84.0513 836.194,-86.4413"/>
</g>
<!-- Node6 -->
<g id="node6" class="node"><title>Node6</title>
<polygon fill="white" stroke="#bfbfbf" points="491,-0.5 491,-19.5 535,-19.5 535,-0.5 491,-0.5"/>
<text text-anchor="middle" x="513" y="-7.5" font-family="Helvetica,sans-Serif" font-size="10.00">vector</text>
</g>
<!-- Node1&#45;&gt;Node6 -->
<g id="edge28" class="edge"><title>Node1&#45;&gt;Node6</title>
<path fill="none" stroke="midnightblue" d="M622.755,-173.98C591.144,-169.122 554.576,-157.774 532,-132 506.98,-103.436 507.62,-55.8453 510.297,-29.671"/>
<polygon fill="midnightblue" stroke="midnightblue" points="513.79,-29.9428 511.542,-19.5891 506.842,-29.0846 513.79,-29.9428"/>
</g>
<!-- Node12 -->
<g id="node12" class="node"><title>Node12</title>
<polygon fill="white" stroke="#bfbfbf" points="411,-0.5 411,-19.5 473,-19.5 473,-0.5 411,-0.5"/>
<text text-anchor="middle" x="442" y="-7.5" font-family="Helvetica,sans-Serif" font-size="10.00">type_traits</text>
</g>
<!-- Node1&#45;&gt;Node12 -->
<g id="edge31" class="edge"><title>Node1&#45;&gt;Node12</title>
<path fill="none" stroke="midnightblue" d="M622.817,-171.789C588.631,-166.299 546.838,-155.047 516,-132 480.289,-105.31 458.076,-55.8494 448.131,-29.1768"/>
<polygon fill="midnightblue" stroke="midnightblue" points="451.363,-27.8193 444.716,-19.5691 444.768,-30.1638 451.363,-27.8193"/>
</g>
<!-- Node19 -->
<g id="node19" class="node"><title>Node19</title>
<polygon fill="white" stroke="#bfbfbf" points="1019.5,-0.5 1019.5,-19.5 1078.5,-19.5 1078.5,-0.5 1019.5,-0.5"/>
<text text-anchor="middle" x="1049" y="-7.5" font-family="Helvetica,sans-Serif" font-size="10.00">functional</text>
</g>
<!-- Node1&#45;&gt;Node19 -->
<g id="edge32" class="edge"><title>Node1&#45;&gt;Node19</title>
<path fill="none" stroke="midnightblue" d="M690.036,-168.197C706.18,-145.414 752.89,-84.3246 808,-56 886.335,-15.7385 918.44,-36.6984 1009.35,-19.9577"/>
<polygon fill="midnightblue" stroke="midnightblue" points="1010.08,-23.3813 1019.22,-18.0343 1008.74,-16.5104 1010.08,-23.3813"/>
</g>
<!-- Node22 -->
<g id="node22" class="node"><title>Node22</title>
<polygon fill="white" stroke="#bfbfbf" points="855.5,-112.5 855.5,-131.5 896.5,-131.5 896.5,-112.5 855.5,-112.5"/>
<text text-anchor="middle" x="876" y="-119.5" font-family="Helvetica,sans-Serif" font-size="10.00">string</text>
</g>
<!-- Node1&#45;&gt;Node22 -->
<g id="edge26" class="edge"><title>Node1&#45;&gt;Node22</title>
<path fill="none" stroke="midnightblue" d="M714.423,-168.444C750.32,-158.347 809.651,-141.661 845.557,-131.562"/>
<polygon fill="midnightblue" stroke="midnightblue" points="846.782,-134.854 855.46,-128.777 844.886,-128.115 846.782,-134.854"/>
</g>
<!-- Node23 -->
<g id="node23" class="node"><title>Node23</title>
<polygon fill="white" stroke="#bfbfbf" points="914.5,-112.5 914.5,-131.5 949.5,-131.5 949.5,-112.5 914.5,-112.5"/>
<text text-anchor="middle" x="932" y="-119.5" font-family="Helvetica,sans-Serif" font-size="10.00">map</text>
</g>
<!-- Node1&#45;&gt;Node23 -->
<g id="edge30" class="edge"><title>Node1&#45;&gt;Node23</title>
<path fill="none" stroke="midnightblue" d="M734.875,-168.446C777.732,-160.833 840.788,-148.686 904.551,-131.846"/>
<polygon fill="midnightblue" stroke="midnightblue" points="905.62,-135.183 914.374,-129.215 903.809,-128.421 905.62,-135.183"/>
</g>
<!-- Node2&#45;&gt;Node3 -->
<g id="edge2" class="edge"><title>Node2&#45;&gt;Node3</title>
<path fill="none" stroke="midnightblue" d="M541.359,-116.859C468.988,-111.089 343.544,-98.6896 238,-76 173.885,-62.2168 101.228,-37.6519 60.3824,-22.9889"/>
<polygon fill="midnightblue" stroke="midnightblue" points="61.5445,-19.6874 50.9503,-19.5755 59.1624,-26.2696 61.5445,-19.6874"/>
</g>
<!-- Node2&#45;&gt;Node4 -->
<g id="edge3" class="edge"><title>Node2&#45;&gt;Node4</title>
<path fill="none" stroke="midnightblue" d="M638.712,-112.444C685.187,-101.899 763.349,-84.1646 807.02,-74.256"/>
<polygon fill="midnightblue" stroke="midnightblue" points="807.846,-77.6575 816.824,-72.0315 806.297,-70.831 807.846,-77.6575"/>
</g>
<!-- Node5 -->
<g id="node5" class="node"><title>Node5</title>
<polygon fill="white" stroke="#bfbfbf" points="333.5,-0.5 333.5,-19.5 392.5,-19.5 392.5,-0.5 333.5,-0.5"/>
<text text-anchor="middle" x="363" y="-7.5" font-family="Helvetica,sans-Serif" font-size="10.00">stdexcept</text>
</g>
<!-- Node2&#45;&gt;Node5 -->
<g id="edge4" class="edge"><title>Node2&#45;&gt;Node5</title>
<path fill="none" stroke="midnightblue" d="M582.325,-112.368C540.615,-93.0908 439.709,-46.4536 390.672,-23.7894"/>
<polygon fill="midnightblue" stroke="midnightblue" points="392.134,-20.6098 381.589,-19.5914 389.198,-26.964 392.134,-20.6098"/>
</g>
<!-- Node2&#45;&gt;Node6 -->
<g id="edge5" class="edge"><title>Node2&#45;&gt;Node6</title>
<path fill="none" stroke="midnightblue" d="M592.788,-112.242C584.525,-103.321 571.534,-88.9902 561,-76 548.078,-60.0647 534.254,-41.1226 524.777,-27.81"/>
<polygon fill="midnightblue" stroke="midnightblue" points="527.604,-25.7458 518.974,-19.5992 521.887,-29.7857 527.604,-25.7458"/>
</g>
<!-- Node7 -->
<g id="node7" class="node"><title>Node7</title>
<g id="a_node7"><a xlink:href="gf_8hpp.html" target="_top" xlink:title="gf.hpp">
<polygon fill="white" stroke="black" points="247,-56.5 247,-75.5 291,-75.5 291,-56.5 247,-56.5"/>
<text text-anchor="middle" x="269" y="-63.5" font-family="Helvetica,sans-Serif" font-size="10.00">gf.hpp</text>
</a>
</g>
</g>
<!-- Node2&#45;&gt;Node7 -->
<g id="edge6" class="edge"><title>Node2&#45;&gt;Node7</title>
<path fill="none" stroke="midnightblue" d="M548.394,-112.444C478.854,-101.133 358.459,-81.5505 301.133,-72.2265"/>
<polygon fill="midnightblue" stroke="midnightblue" points="301.622,-68.7601 291.19,-70.6092 300.498,-75.6693 301.622,-68.7601"/>
</g>
<!-- Node13 -->
<g id="node13" class="node"><title>Node13</title>
<g id="a_node13"><a xlink:href="polynomial_8hpp_source.html" target="_top" xlink:title="polynomial.hpp">
<polygon fill="white" stroke="black" points="570,-56.5 570,-75.5 652,-75.5 652,-56.5 570,-56.5"/>
<text text-anchor="middle" x="611" y="-63.5" font-family="Helvetica,sans-Serif" font-size="10.00">polynomial.hpp</text>
</a>
</g>
</g>
<!-- Node2&#45;&gt;Node13 -->
<g id="edge14" class="edge"><title>Node2&#45;&gt;Node13</title>
<path fill="none" stroke="midnightblue" d="M602.651,-112.083C603.976,-104.927 605.882,-94.6353 607.539,-85.6911"/>
<polygon fill="midnightblue" stroke="midnightblue" points="611,-86.2212 609.379,-75.7511 604.117,-84.9466 611,-86.2212"/>
</g>
<!-- Node17 -->
<g id="node17" class="node"><title>Node17</title>
<g id="a_node17"><a xlink:href="checker_8hpp.html" target="_top" xlink:title="checker.hpp">
<polygon fill="white" stroke="black" points="691,-56.5 691,-75.5 761,-75.5 761,-56.5 691,-56.5"/>
<text text-anchor="middle" x="726" y="-63.5" font-family="Helvetica,sans-Serif" font-size="10.00">checker.hpp</text>
</a>
</g>
</g>
<!-- Node2&#45;&gt;Node17 -->
<g id="edge20" class="edge"><title>Node2&#45;&gt;Node17</title>
<path fill="none" stroke="midnightblue" d="M620.807,-112.444C641.287,-103.596 673.483,-89.6875 696.865,-79.5865"/>
<polygon fill="midnightblue" stroke="midnightblue" points="698.494,-82.6953 706.286,-75.5164 695.718,-76.2692 698.494,-82.6953"/>
</g>
<!-- Node7&#45;&gt;Node3 -->
<g id="edge7" class="edge"><title>Node7&#45;&gt;Node3</title>
<path fill="none" stroke="midnightblue" d="M246.928,-60.2939C211.149,-52.6304 138.029,-36.8252 66.3653,-20.2806"/>
<polygon fill="midnightblue" stroke="midnightblue" points="66.7987,-16.7884 56.2669,-17.9419 65.2194,-23.6079 66.7987,-16.7884"/>
</g>
<!-- Node7&#45;&gt;Node5 -->
<g id="edge12" class="edge"><title>Node7&#45;&gt;Node5</title>
<path fill="none" stroke="midnightblue" d="M284.103,-56.324C298.903,-47.8215 321.694,-34.7288 338.982,-24.7975"/>
<polygon fill="midnightblue" stroke="midnightblue" points="341.007,-27.6707 347.935,-19.6545 337.52,-21.6009 341.007,-27.6707"/>
</g>
<!-- Node8 -->
<g id="node8" class="node"><title>Node8</title>
<polygon fill="white" stroke="#bfbfbf" points="74,-0.5 74,-19.5 112,-19.5 112,-0.5 74,-0.5"/>
<text text-anchor="middle" x="93" y="-7.5" font-family="Helvetica,sans-Serif" font-size="10.00">array</text>
</g>
<!-- Node7&#45;&gt;Node8 -->
<g id="edge8" class="edge"><title>Node7&#45;&gt;Node8</title>
<path fill="none" stroke="midnightblue" d="M246.901,-58.3997C219.697,-50.249 171.852,-35.8315 121.938,-20.2607"/>
<polygon fill="midnightblue" stroke="midnightblue" points="122.856,-16.8805 112.267,-17.2371 120.767,-23.5616 122.856,-16.8805"/>
</g>
<!-- Node9 -->
<g id="node9" class="node"><title>Node9</title>
<polygon fill="white" stroke="#bfbfbf" points="130,-0.5 130,-19.5 176,-19.5 176,-0.5 130,-0.5"/>
<text text-anchor="middle" x="153" y="-7.5" font-family="Helvetica,sans-Serif" font-size="10.00">cstdint</text>
</g>
<!-- Node7&#45;&gt;Node9 -->
<g id="edge9" class="edge"><title>Node7&#45;&gt;Node9</title>
<path fill="none" stroke="midnightblue" d="M250.619,-56.4435C231.784,-47.6751 202.269,-33.9355 180.621,-23.8579"/>
<polygon fill="midnightblue" stroke="midnightblue" points="181.838,-20.5637 171.295,-19.5164 178.883,-26.9098 181.838,-20.5637"/>
</g>
<!-- Node10 -->
<g id="node10" class="node"><title>Node10</title>
<polygon fill="white" stroke="#bfbfbf" points="194,-0.5 194,-19.5 248,-19.5 248,-0.5 194,-0.5"/>
<text text-anchor="middle" x="221" y="-7.5" font-family="Helvetica,sans-Serif" font-size="10.00">iostream</text>
</g>
<!-- Node7&#45;&gt;Node10 -->
<g id="edge10" class="edge"><title>Node7&#45;&gt;Node10</title>
<path fill="none" stroke="midnightblue" d="M261.074,-56.083C254.154,-48.2982 243.935,-36.8015 235.548,-27.3665"/>
<polygon fill="midnightblue" stroke="midnightblue" points="238.038,-24.8999 228.779,-19.7511 232.806,-29.5505 238.038,-24.8999"/>
</g>
<!-- Node11 -->
<g id="node11" class="node"><title>Node11</title>
<polygon fill="white" stroke="#bfbfbf" points="266.5,-0.5 266.5,-19.5 315.5,-19.5 315.5,-0.5 266.5,-0.5"/>
<text text-anchor="middle" x="291" y="-7.5" font-family="Helvetica,sans-Serif" font-size="10.00">random</text>
</g>
<!-- Node7&#45;&gt;Node11 -->
<g id="edge11" class="edge"><title>Node7&#45;&gt;Node11</title>
<path fill="none" stroke="midnightblue" d="M272.633,-56.083C275.612,-48.77 279.926,-38.1814 283.625,-29.1034"/>
<polygon fill="midnightblue" stroke="midnightblue" points="286.903,-30.3326 287.435,-19.7511 280.42,-27.6914 286.903,-30.3326"/>
</g>
<!-- Node7&#45;&gt;Node12 -->
<g id="edge13" class="edge"><title>Node7&#45;&gt;Node12</title>
<path fill="none" stroke="midnightblue" d="M291.263,-58.051C320.001,-49.0805 370.413,-33.3452 404.964,-22.5603"/>
<polygon fill="midnightblue" stroke="midnightblue" points="406.194,-25.8432 414.697,-19.5225 404.108,-19.1611 406.194,-25.8432"/>
</g>
<!-- Node13&#45;&gt;Node3 -->
<g id="edge18" class="edge"><title>Node13&#45;&gt;Node3</title>
<path fill="none" stroke="midnightblue" d="M569.982,-63.8091C480.261,-60.7348 259.786,-50.6252 66.2583,-19.9563"/>
<polygon fill="midnightblue" stroke="midnightblue" points="66.6178,-16.4692 56.189,-18.3379 65.5068,-23.3805 66.6178,-16.4692"/>
</g>
<!-- Node13&#45;&gt;Node6 -->
<g id="edge15" class="edge"><title>Node13&#45;&gt;Node6</title>
<path fill="none" stroke="midnightblue" d="M595.255,-56.324C579.681,-47.7428 555.623,-34.486 537.541,-24.5224"/>
<polygon fill="midnightblue" stroke="midnightblue" points="539.154,-21.4152 528.706,-19.6545 535.776,-27.546 539.154,-21.4152"/>
</g>
<!-- Node14 -->
<g id="node14" class="node"><title>Node14</title>
<polygon fill="white" stroke="#bfbfbf" points="714.5,-0.5 714.5,-19.5 763.5,-19.5 763.5,-0.5 714.5,-0.5"/>
<text text-anchor="middle" x="739" y="-7.5" font-family="Helvetica,sans-Serif" font-size="10.00">cassert</text>
</g>
<!-- Node13&#45;&gt;Node14 -->
<g id="edge16" class="edge"><title>Node13&#45;&gt;Node14</title>
<path fill="none" stroke="midnightblue" d="M631.282,-56.4435C652.347,-47.5566 685.517,-33.5632 709.486,-23.4514"/>
<polygon fill="midnightblue" stroke="midnightblue" points="710.96,-26.6283 718.813,-19.5164 708.239,-20.1787 710.96,-26.6283"/>
</g>
<!-- Node15 -->
<g id="node15" class="node"><title>Node15</title>
<polygon fill="white" stroke="#bfbfbf" points="553,-0.5 553,-19.5 605,-19.5 605,-0.5 553,-0.5"/>
<text text-anchor="middle" x="579" y="-7.5" font-family="Helvetica,sans-Serif" font-size="10.00">ostream</text>
</g>
<!-- Node13&#45;&gt;Node15 -->
<g id="edge17" class="edge"><title>Node13&#45;&gt;Node15</title>
<path fill="none" stroke="midnightblue" d="M605.716,-56.083C601.289,-48.6127 594.837,-37.7244 589.382,-28.5199"/>
<polygon fill="midnightblue" stroke="midnightblue" points="592.295,-26.5697 584.186,-19.7511 586.273,-30.1383 592.295,-26.5697"/>
</g>
<!-- Node16 -->
<g id="node16" class="node"><title>Node16</title>
<polygon fill="white" stroke="#bfbfbf" points="623.5,-0.5 623.5,-19.5 696.5,-19.5 696.5,-0.5 623.5,-0.5"/>
<text text-anchor="middle" x="660" y="-7.5" font-family="Helvetica,sans-Serif" font-size="10.00">initializer_list</text>
</g>
<!-- Node13&#45;&gt;Node16 -->
<g id="edge19" class="edge"><title>Node13&#45;&gt;Node16</title>
<path fill="none" stroke="midnightblue" d="M619.091,-56.083C626.155,-48.2982 636.588,-36.8015 645.149,-27.3665"/>
<polygon fill="midnightblue" stroke="midnightblue" points="647.931,-29.5087 652.059,-19.7511 642.747,-24.8047 647.931,-29.5087"/>
</g>
<!-- Node17&#45;&gt;Node14 -->
<g id="edge22" class="edge"><title>Node17&#45;&gt;Node14</title>
<path fill="none" stroke="midnightblue" d="M728.147,-56.083C729.869,-48.9272 732.347,-38.6353 734.5,-29.6911"/>
<polygon fill="midnightblue" stroke="midnightblue" points="737.955,-30.2925 736.893,-19.7511 731.15,-28.6541 737.955,-30.2925"/>
</g>
<!-- Node18 -->
<g id="node18" class="node"><title>Node18</title>
<polygon fill="white" stroke="#bfbfbf" points="782,-0.5 782,-19.5 826,-19.5 826,-0.5 782,-0.5"/>
<text text-anchor="middle" x="804" y="-7.5" font-family="Helvetica,sans-Serif" font-size="10.00">thread</text>
</g>
<!-- Node17&#45;&gt;Node18 -->
<g id="edge21" class="edge"><title>Node17&#45;&gt;Node18</title>
<path fill="none" stroke="midnightblue" d="M738.532,-56.324C750.586,-47.979 769.027,-35.2122 783.269,-25.3524"/>
<polygon fill="midnightblue" stroke="midnightblue" points="785.269,-28.2243 791.499,-19.6545 781.285,-22.469 785.269,-28.2243"/>
</g>
<!-- Node17&#45;&gt;Node19 -->
<g id="edge23" class="edge"><title>Node17&#45;&gt;Node19</title>
<path fill="none" stroke="midnightblue" d="M761.042,-58.4335C765.731,-57.593 770.48,-56.7612 775,-56 876.042,-38.9852 904.519,-39.8238 1009.21,-20.0252"/>
<polygon fill="midnightblue" stroke="midnightblue" points="1010.07,-23.4232 1019.24,-18.1095 1008.76,-16.5475 1010.07,-23.4232"/>
</g>
<!-- Node20 -->
<g id="node20" class="node"><title>Node20</title>
<polygon fill="white" stroke="#bfbfbf" points="844,-0.5 844,-19.5 888,-19.5 888,-0.5 844,-0.5"/>
<text text-anchor="middle" x="866" y="-7.5" font-family="Helvetica,sans-Serif" font-size="10.00">mutex</text>
</g>
<!-- Node17&#45;&gt;Node20 -->
<g id="edge24" class="edge"><title>Node17&#45;&gt;Node20</title>
<path fill="none" stroke="midnightblue" d="M748.183,-56.4435C771.428,-47.4776 808.149,-33.314 834.415,-23.1827"/>
<polygon fill="midnightblue" stroke="midnightblue" points="835.85,-26.3807 843.92,-19.5164 833.331,-19.8497 835.85,-26.3807"/>
</g>
<!-- Node21 -->
<g id="node21" class="node"><title>Node21</title>
<polygon fill="white" stroke="#bfbfbf" points="906.5,-0.5 906.5,-19.5 1001.5,-19.5 1001.5,-0.5 906.5,-0.5"/>
<text text-anchor="middle" x="954" y="-7.5" font-family="Helvetica,sans-Serif" font-size="10.00">condition_variable</text>
</g>
<!-- Node17&#45;&gt;Node21 -->
<g id="edge25" class="edge"><title>Node17&#45;&gt;Node21</title>
<path fill="none" stroke="midnightblue" d="M761.125,-56.6808C800.643,-47.3215 864.962,-32.088 908.346,-21.8127"/>
<polygon fill="midnightblue" stroke="midnightblue" points="909.158,-25.2174 918.082,-19.5069 907.545,-18.4059 909.158,-25.2174"/>
</g>
</g>
</svg>
