<?xml version="1.0" encoding="UTF-8" standalone="no"?>
<!DOCTYPE svg PUBLIC "-//W3C//DTD SVG 1.1//EN"
 "http://www.w3.org/Graphics/SVG/1.1/DTD/svg11.dtd">
<!-- Generated by graphviz version 2.44.0 ()
 -->
<!-- Title: include/tms&#45;nets/niederreiter2.hpp Pages: 1 -->
<svg width="504pt" height="151pt"
 viewBox="0.00 0.00 503.50 151.00" xmlns="http://www.w3.org/2000/svg" xmlns:xlink="http://www.w3.org/1999/xlink">
<g id="graph0" class="graph" transform="scale(1 1) rotate(0) translate(4 147)">
<title>include/tms&#45;nets/niederreiter2.hpp</title>
<polygon fill="white" stroke="transparent" points="-4,4 -4,-147 499.5,-147 499.5,4 -4,4"/>
<!-- Node1 -->
<g id="node1" class="node">
<title>Node1</title>
<g id="a_node1"><a xlink:title="Includes the generator of a base 2 digital Niederreiter&#39;s (t,m,s)&#45;nets.">
<polygon fill="#bfbfbf" stroke="black" points="160.5,-123.5 160.5,-142.5 323.5,-142.5 323.5,-123.5 160.5,-123.5"/>
<text text-anchor="middle" x="242" y="-130.5" font-family="Helvetica,sans-Serif" font-size="10.00">include/tms&#45;nets/niederreiter2.hpp</text>
</a>
</g>
</g>
<!-- Node2 -->
<g id="node2" class="node">
<title>Node2</title>
<g id="a_node2"><a xlink:href="gf2poly_8hpp.html" target="_top" xlink:title=" ">
<polygon fill="white" stroke="black" points="0,-67.5 0,-86.5 102,-86.5 102,-67.5 0,-67.5"/>
<text text-anchor="middle" x="51" y="-74.5" font-family="Helvetica,sans-Serif" font-size="10.00">./details/gf2poly.hpp</text>
</a>
</g>
</g>
<!-- Node1&#45;&gt;Node2 -->
<g id="edge1" class="edge">
<title>Node1&#45;&gt;Node2</title>
<path fill="none" stroke="midnightblue" d="M211.74,-123.44C179.04,-114.2 126.82,-99.44 90.82,-89.26"/>
<polygon fill="midnightblue" stroke="midnightblue" points="91.7,-85.87 81.12,-86.52 89.79,-92.61 91.7,-85.87"/>
</g>
<!-- Node4 -->
<g id="node4" class="node">
<title>Node4</title>
<g id="a_node4"><a xlink:title=" ">
<polygon fill="white" stroke="#bfbfbf" points="112.5,-6 112.5,-25 147.5,-25 147.5,-6 112.5,-6"/>
<text text-anchor="middle" x="130" y="-13" font-family="Helvetica,sans-Serif" font-size="10.00">map</text>
</a>
</g>
</g>
<!-- Node1&#45;&gt;Node4 -->
<g id="edge9" class="edge">
<title>Node1&#45;&gt;Node4</title>
<path fill="none" stroke="midnightblue" d="M208.31,-123.39C188.36,-116.63 164.1,-105.23 149,-87 137.02,-72.53 132.54,-51.18 130.89,-35.77"/>
<polygon fill="midnightblue" stroke="midnightblue" points="134.35,-35.07 130.11,-25.36 127.37,-35.59 134.35,-35.07"/>
</g>
<!-- Node5 -->
<g id="node5" class="node">
<title>Node5</title>
<g id="a_node5"><a xlink:title=" ">
<polygon fill="white" stroke="#bfbfbf" points="158,-67.5 158,-86.5 202,-86.5 202,-67.5 158,-67.5"/>
<text text-anchor="middle" x="180" y="-74.5" font-family="Helvetica,sans-Serif" font-size="10.00">vector</text>
</a>
</g>
</g>
<!-- Node1&#45;&gt;Node5 -->
<g id="edge4" class="edge">
<title>Node1&#45;&gt;Node5</title>
<path fill="none" stroke="midnightblue" d="M232.04,-123.32C222.87,-115.34 209.06,-103.31 197.97,-93.65"/>
<polygon fill="midnightblue" stroke="midnightblue" points="199.98,-90.76 190.14,-86.83 195.38,-96.04 199.98,-90.76"/>
</g>
<!-- Node6 -->
<g id="node6" class="node">
<title>Node6</title>
<g id="a_node6"><a xlink:title=" ">
<polygon fill="white" stroke="#bfbfbf" points="220,-67.5 220,-86.5 264,-86.5 264,-67.5 220,-67.5"/>
<text text-anchor="middle" x="242" y="-74.5" font-family="Helvetica,sans-Serif" font-size="10.00">cmath</text>
</a>
</g>
</g>
<!-- Node1&#45;&gt;Node6 -->
<g id="edge5" class="edge">
<title>Node1&#45;&gt;Node6</title>
<path fill="none" stroke="midnightblue" d="M242,-123.08C242,-116.01 242,-105.86 242,-96.99"/>
<polygon fill="midnightblue" stroke="midnightblue" points="245.5,-96.75 242,-86.75 238.5,-96.75 245.5,-96.75"/>
</g>
<!-- Node7 -->
<g id="node7" class="node">
<title>Node7</title>
<g id="a_node7"><a xlink:title=" ">
<polygon fill="white" stroke="#bfbfbf" points="282,-67.5 282,-86.5 344,-86.5 344,-67.5 282,-67.5"/>
<text text-anchor="middle" x="313" y="-74.5" font-family="Helvetica,sans-Serif" font-size="10.00">type_traits</text>
</a>
</g>
</g>
<!-- Node1&#45;&gt;Node7 -->
<g id="edge6" class="edge">
<title>Node1&#45;&gt;Node7</title>
<path fill="none" stroke="midnightblue" d="M253.41,-123.32C264.11,-115.18 280.34,-102.84 293.16,-93.09"/>
<polygon fill="midnightblue" stroke="midnightblue" points="295.54,-95.67 301.39,-86.83 291.31,-90.1 295.54,-95.67"/>
</g>
<!-- Node8 -->
<g id="node8" class="node">
<title>Node8</title>
<g id="a_node8"><a xlink:title=" ">
<polygon fill="white" stroke="#bfbfbf" points="362,-67.5 362,-86.5 418,-86.5 418,-67.5 362,-67.5"/>
<text text-anchor="middle" x="390" y="-74.5" font-family="Helvetica,sans-Serif" font-size="10.00">algorithm</text>
</a>
</g>
</g>
<!-- Node1&#45;&gt;Node8 -->
<g id="edge7" class="edge">
<title>Node1&#45;&gt;Node8</title>
<path fill="none" stroke="midnightblue" d="M265.45,-123.44C290.13,-114.44 329.19,-100.19 356.98,-90.05"/>
<polygon fill="midnightblue" stroke="midnightblue" points="358.46,-93.23 366.66,-86.52 356.06,-86.66 358.46,-93.23"/>
</g>
<!-- Node9 -->
<g id="node9" class="node">
<title>Node9</title>
<g id="a_node9"><a xlink:title=" ">
<polygon fill="white" stroke="#bfbfbf" points="436.5,-67.5 436.5,-86.5 495.5,-86.5 495.5,-67.5 436.5,-67.5"/>
<text text-anchor="middle" x="466" y="-74.5" font-family="Helvetica,sans-Serif" font-size="10.00">functional</text>
</a>
</g>
</g>
<!-- Node1&#45;&gt;Node9 -->
<g id="edge8" class="edge">
<title>Node1&#45;&gt;Node9</title>
<path fill="none" stroke="midnightblue" d="M277.49,-123.44C318.07,-113.66 384.29,-97.7 426.48,-87.53"/>
<polygon fill="midnightblue" stroke="midnightblue" points="427.49,-90.88 436.4,-85.14 425.85,-84.08 427.49,-90.88"/>
</g>
<!-- Node3 -->
<g id="node3" class="node">
<title>Node3</title>
<g id="a_node3"><a xlink:title=" ">
<polygon fill="white" stroke="#bfbfbf" points="2,-0.5 2,-30.5 94,-30.5 94,-0.5 2,-0.5"/>
<text text-anchor="start" x="10" y="-18.5" font-family="Helvetica,sans-Serif" font-size="10.00">../thirdparty/irrpoly</text>
<text text-anchor="middle" x="48" y="-7.5" font-family="Helvetica,sans-Serif" font-size="10.00">/gfcheck.hpp</text>
</a>
</g>
</g>
<!-- Node2&#45;&gt;Node3 -->
<g id="edge2" class="edge">
<title>Node2&#45;&gt;Node3</title>
<path fill="none" stroke="midnightblue" d="M50.57,-67.48C50.22,-60.47 49.7,-50.19 49.22,-40.7"/>
<polygon fill="midnightblue" stroke="midnightblue" points="52.71,-40.33 48.71,-30.52 45.72,-40.69 52.71,-40.33"/>
</g>
<!-- Node2&#45;&gt;Node4 -->
<g id="edge3" class="edge">
<title>Node2&#45;&gt;Node4</title>
<path fill="none" stroke="midnightblue" d="M62.32,-67.48C74.87,-58.02 95.35,-42.6 110.5,-31.19"/>
<polygon fill="midnightblue" stroke="midnightblue" points="112.82,-33.82 118.7,-25.01 108.61,-28.23 112.82,-33.82"/>
</g>
</g>
</svg>
