<?xml version="1.0" encoding="UTF-8" standalone="no"?>
<!DOCTYPE svg PUBLIC "-//W3C//DTD SVG 1.1//EN"
 "http://www.w3.org/Graphics/SVG/1.1/DTD/svg11.dtd">
<!-- Generated by graphviz version 2.38.0 (20140413.2041)
 -->
<!-- Title: include/irrpoly/polynomialgf.hpp Pages: 1 -->
<svg width="1089pt" height="140pt"
 viewBox="0.00 0.00 1088.50 140.00" xmlns="http://www.w3.org/2000/svg" xmlns:xlink="http://www.w3.org/1999/xlink">
<g id="graph0" class="graph" transform="scale(1 1) rotate(0) translate(4 136)">
<title>include/irrpoly/polynomialgf.hpp</title>
<polygon fill="white" stroke="none" points="-4,4 -4,-136 1084.5,-136 1084.5,4 -4,4"/>
<!-- Node1 -->
<g id="node1" class="node"><title>Node1</title>
<polygon fill="#bfbfbf" stroke="black" points="369,-112.5 369,-131.5 522,-131.5 522,-112.5 369,-112.5"/>
<text text-anchor="middle" x="445.5" y="-119.5" font-family="Helvetica,sans-Serif" font-size="10.00">include/irrpoly/polynomialgf.hpp</text>
</g>
<!-- Node2 -->
<g id="node2" class="node"><title>Node2</title>
<polygon fill="white" stroke="#bfbfbf" points="417.5,-0.5 417.5,-19.5 473.5,-19.5 473.5,-0.5 417.5,-0.5"/>
<text text-anchor="middle" x="445.5" y="-7.5" font-family="Helvetica,sans-Serif" font-size="10.00">algorithm</text>
</g>
<!-- Node1&#45;&gt;Node2 -->
<g id="edge1" class="edge"><title>Node1&#45;&gt;Node2</title>
<path fill="none" stroke="midnightblue" d="M445.5,-112.368C445.5,-94.617 445.5,-53.6664 445.5,-29.5974"/>
<polygon fill="midnightblue" stroke="midnightblue" points="449,-29.5914 445.5,-19.5914 442,-29.5915 449,-29.5914"/>
</g>
<!-- Node3 -->
<g id="node3" class="node"><title>Node3</title>
<polygon fill="white" stroke="#bfbfbf" points="210.5,-56.5 210.5,-75.5 254.5,-75.5 254.5,-56.5 210.5,-56.5"/>
<text text-anchor="middle" x="232.5" y="-63.5" font-family="Helvetica,sans-Serif" font-size="10.00">cmath</text>
</g>
<!-- Node1&#45;&gt;Node3 -->
<g id="edge2" class="edge"><title>Node1&#45;&gt;Node3</title>
<path fill="none" stroke="midnightblue" d="M409.132,-112.462C374.328,-104.191 320.13,-91.0495 264.489,-76.1916"/>
<polygon fill="midnightblue" stroke="midnightblue" points="265.387,-72.8088 254.821,-73.5964 263.572,-79.5694 265.387,-72.8088"/>
</g>
<!-- Node4 -->
<g id="node4" class="node"><title>Node4</title>
<polygon fill="white" stroke="#bfbfbf" points="0,-0.5 0,-19.5 59,-19.5 59,-0.5 0,-0.5"/>
<text text-anchor="middle" x="29.5" y="-7.5" font-family="Helvetica,sans-Serif" font-size="10.00">stdexcept</text>
</g>
<!-- Node1&#45;&gt;Node4 -->
<g id="edge3" class="edge"><title>Node1&#45;&gt;Node4</title>
<path fill="none" stroke="midnightblue" d="M382.109,-112.492C332.439,-105.065 261.873,-92.8289 201.5,-76 149.724,-61.5674 91.6482,-38.0008 57.9589,-23.5592"/>
<polygon fill="midnightblue" stroke="midnightblue" points="59.2925,-20.3227 48.7246,-19.5668 56.5145,-26.7479 59.2925,-20.3227"/>
</g>
<!-- Node5 -->
<g id="node5" class="node"><title>Node5</title>
<polygon fill="white" stroke="#bfbfbf" points="491.5,-0.5 491.5,-19.5 535.5,-19.5 535.5,-0.5 491.5,-0.5"/>
<text text-anchor="middle" x="513.5" y="-7.5" font-family="Helvetica,sans-Serif" font-size="10.00">vector</text>
</g>
<!-- Node1&#45;&gt;Node5 -->
<g id="edge4" class="edge"><title>Node1&#45;&gt;Node5</title>
<path fill="none" stroke="midnightblue" d="M450.836,-112.368C462.008,-94.2957 488.045,-52.1764 502.801,-28.3074"/>
<polygon fill="midnightblue" stroke="midnightblue" points="505.908,-29.9378 508.189,-19.5914 499.954,-26.257 505.908,-29.9378"/>
</g>
<!-- Node6 -->
<g id="node6" class="node"><title>Node6</title>
<g id="a_node6"><a xlink:href="gf_8hpp.html" target="_top" xlink:title="gf.hpp">
<polygon fill="white" stroke="black" points="272.5,-56.5 272.5,-75.5 316.5,-75.5 316.5,-56.5 272.5,-56.5"/>
<text text-anchor="middle" x="294.5" y="-63.5" font-family="Helvetica,sans-Serif" font-size="10.00">gf.hpp</text>
</a>
</g>
</g>
<!-- Node1&#45;&gt;Node6 -->
<g id="edge5" class="edge"><title>Node1&#45;&gt;Node6</title>
<path fill="none" stroke="midnightblue" d="M421.574,-112.444C395.835,-103.239 354.778,-88.5565 326.329,-78.3826"/>
<polygon fill="midnightblue" stroke="midnightblue" points="327.432,-75.0601 316.838,-74.9883 325.075,-81.6513 327.432,-75.0601"/>
</g>
<!-- Node12 -->
<g id="node12" class="node"><title>Node12</title>
<g id="a_node12"><a xlink:href="polynomial_8hpp_source.html" target="_top" xlink:title="polynomial.hpp">
<polygon fill="white" stroke="black" points="537.5,-56.5 537.5,-75.5 619.5,-75.5 619.5,-56.5 537.5,-56.5"/>
<text text-anchor="middle" x="578.5" y="-63.5" font-family="Helvetica,sans-Serif" font-size="10.00">polynomial.hpp</text>
</a>
</g>
</g>
<!-- Node1&#45;&gt;Node12 -->
<g id="edge13" class="edge"><title>Node1&#45;&gt;Node12</title>
<path fill="none" stroke="midnightblue" d="M466.574,-112.444C488.56,-103.517 523.234,-89.4387 548.164,-79.3168"/>
<polygon fill="midnightblue" stroke="midnightblue" points="549.576,-82.5213 557.524,-75.5164 546.942,-76.0355 549.576,-82.5213"/>
</g>
<!-- Node16 -->
<g id="node16" class="node"><title>Node16</title>
<g id="a_node16"><a xlink:href="checker_8hpp.html" target="_top" xlink:title="checker.hpp">
<polygon fill="white" stroke="black" points="812.5,-56.5 812.5,-75.5 882.5,-75.5 882.5,-56.5 812.5,-56.5"/>
<text text-anchor="middle" x="847.5" y="-63.5" font-family="Helvetica,sans-Serif" font-size="10.00">checker.hpp</text>
</a>
</g>
</g>
<!-- Node1&#45;&gt;Node16 -->
<g id="edge19" class="edge"><title>Node1&#45;&gt;Node16</title>
<path fill="none" stroke="midnightblue" d="M509.198,-112.444C590.966,-101.46 730.805,-82.6755 802.385,-73.0602"/>
<polygon fill="midnightblue" stroke="midnightblue" points="802.991,-76.5103 812.436,-71.7101 802.059,-69.5727 802.991,-76.5103"/>
</g>
<!-- Node6&#45;&gt;Node2 -->
<g id="edge6" class="edge"><title>Node6&#45;&gt;Node2</title>
<path fill="none" stroke="midnightblue" d="M316.781,-57.0321C341.878,-48.0568 382.94,-33.3725 411.927,-23.0062"/>
<polygon fill="midnightblue" stroke="midnightblue" points="413.393,-26.199 421.631,-19.536 411.036,-19.6077 413.393,-26.199"/>
</g>
<!-- Node6&#45;&gt;Node4 -->
<g id="edge11" class="edge"><title>Node6&#45;&gt;Node4</title>
<path fill="none" stroke="midnightblue" d="M272.22,-58.2426C269.298,-57.4417 266.336,-56.6716 263.5,-56 180.756,-36.4027 156.483,-37.7844 69.0909,-20.0338"/>
<polygon fill="midnightblue" stroke="midnightblue" points="69.7809,-16.6025 59.2807,-18.0153 68.3701,-23.4588 69.7809,-16.6025"/>
</g>
<!-- Node7 -->
<g id="node7" class="node"><title>Node7</title>
<polygon fill="white" stroke="#bfbfbf" points="77.5,-0.5 77.5,-19.5 115.5,-19.5 115.5,-0.5 77.5,-0.5"/>
<text text-anchor="middle" x="96.5" y="-7.5" font-family="Helvetica,sans-Serif" font-size="10.00">array</text>
</g>
<!-- Node6&#45;&gt;Node7 -->
<g id="edge7" class="edge"><title>Node6&#45;&gt;Node7</title>
<path fill="none" stroke="midnightblue" d="M272.171,-58.4332C269.258,-57.6012 266.31,-56.7717 263.5,-56 204.967,-39.927 187.479,-37.9386 125.623,-20.2032"/>
<polygon fill="midnightblue" stroke="midnightblue" points="126.314,-16.7595 115.735,-17.3433 124.369,-23.4839 126.314,-16.7595"/>
</g>
<!-- Node8 -->
<g id="node8" class="node"><title>Node8</title>
<polygon fill="white" stroke="#bfbfbf" points="133.5,-0.5 133.5,-19.5 179.5,-19.5 179.5,-0.5 133.5,-0.5"/>
<text text-anchor="middle" x="156.5" y="-7.5" font-family="Helvetica,sans-Serif" font-size="10.00">cstdint</text>
</g>
<!-- Node6&#45;&gt;Node8 -->
<g id="edge8" class="edge"><title>Node6&#45;&gt;Node8</title>
<path fill="none" stroke="midnightblue" d="M272.633,-56.4435C249.721,-47.4776 213.525,-33.314 187.634,-23.1827"/>
<polygon fill="midnightblue" stroke="midnightblue" points="188.852,-19.9011 178.264,-19.5164 186.301,-26.4198 188.852,-19.9011"/>
</g>
<!-- Node9 -->
<g id="node9" class="node"><title>Node9</title>
<polygon fill="white" stroke="#bfbfbf" points="197.5,-0.5 197.5,-19.5 251.5,-19.5 251.5,-0.5 197.5,-0.5"/>
<text text-anchor="middle" x="224.5" y="-7.5" font-family="Helvetica,sans-Serif" font-size="10.00">iostream</text>
</g>
<!-- Node6&#45;&gt;Node9 -->
<g id="edge9" class="edge"><title>Node6&#45;&gt;Node9</title>
<path fill="none" stroke="midnightblue" d="M283.253,-56.324C272.703,-48.1849 256.699,-35.8395 244.058,-26.0874"/>
<polygon fill="midnightblue" stroke="midnightblue" points="246.007,-23.1707 235.951,-19.8339 241.731,-28.7132 246.007,-23.1707"/>
</g>
<!-- Node10 -->
<g id="node10" class="node"><title>Node10</title>
<polygon fill="white" stroke="#bfbfbf" points="270,-0.5 270,-19.5 319,-19.5 319,-0.5 270,-0.5"/>
<text text-anchor="middle" x="294.5" y="-7.5" font-family="Helvetica,sans-Serif" font-size="10.00">random</text>
</g>
<!-- Node6&#45;&gt;Node10 -->
<g id="edge10" class="edge"><title>Node6&#45;&gt;Node10</title>
<path fill="none" stroke="midnightblue" d="M294.5,-56.083C294.5,-49.0059 294.5,-38.8611 294.5,-29.9865"/>
<polygon fill="midnightblue" stroke="midnightblue" points="298,-29.751 294.5,-19.7511 291,-29.7511 298,-29.751"/>
</g>
<!-- Node11 -->
<g id="node11" class="node"><title>Node11</title>
<polygon fill="white" stroke="#bfbfbf" points="337.5,-0.5 337.5,-19.5 399.5,-19.5 399.5,-0.5 337.5,-0.5"/>
<text text-anchor="middle" x="368.5" y="-7.5" font-family="Helvetica,sans-Serif" font-size="10.00">type_traits</text>
</g>
<!-- Node6&#45;&gt;Node11 -->
<g id="edge12" class="edge"><title>Node6&#45;&gt;Node11</title>
<path fill="none" stroke="midnightblue" d="M306.389,-56.324C317.65,-48.1066 334.787,-35.6017 348.209,-25.8069"/>
<polygon fill="midnightblue" stroke="midnightblue" points="350.38,-28.5559 356.394,-19.8339 346.253,-22.9014 350.38,-28.5559"/>
</g>
<!-- Node12&#45;&gt;Node2 -->
<g id="edge17" class="edge"><title>Node12&#45;&gt;Node2</title>
<path fill="none" stroke="midnightblue" d="M557.426,-56.4435C535.44,-47.5171 500.766,-33.4387 475.836,-23.3168"/>
<polygon fill="midnightblue" stroke="midnightblue" points="477.058,-20.0355 466.476,-19.5164 474.424,-26.5213 477.058,-20.0355"/>
</g>
<!-- Node12&#45;&gt;Node5 -->
<g id="edge14" class="edge"><title>Node12&#45;&gt;Node5</title>
<path fill="none" stroke="midnightblue" d="M568.057,-56.324C558.354,-48.2631 543.685,-36.0765 532,-26.3695"/>
<polygon fill="midnightblue" stroke="midnightblue" points="534.062,-23.532 524.133,-19.8339 529.589,-28.9163 534.062,-23.532"/>
</g>
<!-- Node13 -->
<g id="node13" class="node"><title>Node13</title>
<polygon fill="white" stroke="#bfbfbf" points="716,-0.5 716,-19.5 765,-19.5 765,-0.5 716,-0.5"/>
<text text-anchor="middle" x="740.5" y="-7.5" font-family="Helvetica,sans-Serif" font-size="10.00">cassert</text>
</g>
<!-- Node12&#45;&gt;Node13 -->
<g id="edge15" class="edge"><title>Node12&#45;&gt;Node13</title>
<path fill="none" stroke="midnightblue" d="M604.169,-56.4435C631.663,-47.2789 675.448,-32.6839 705.954,-22.5153"/>
<polygon fill="midnightblue" stroke="midnightblue" points="707.368,-25.7335 715.748,-19.2508 705.154,-19.0927 707.368,-25.7335"/>
</g>
<!-- Node14 -->
<g id="node14" class="node"><title>Node14</title>
<polygon fill="white" stroke="#bfbfbf" points="645.5,-0.5 645.5,-19.5 697.5,-19.5 697.5,-0.5 645.5,-0.5"/>
<text text-anchor="middle" x="671.5" y="-7.5" font-family="Helvetica,sans-Serif" font-size="10.00">ostream</text>
</g>
<!-- Node12&#45;&gt;Node14 -->
<g id="edge16" class="edge"><title>Node12&#45;&gt;Node14</title>
<path fill="none" stroke="midnightblue" d="M593.442,-56.324C608.085,-47.8215 630.634,-34.7288 647.738,-24.7975"/>
<polygon fill="midnightblue" stroke="midnightblue" points="649.705,-27.7027 656.595,-19.6545 646.19,-21.6491 649.705,-27.7027"/>
</g>
<!-- Node15 -->
<g id="node15" class="node"><title>Node15</title>
<polygon fill="white" stroke="#bfbfbf" points="554,-0.5 554,-19.5 627,-19.5 627,-0.5 554,-0.5"/>
<text text-anchor="middle" x="590.5" y="-7.5" font-family="Helvetica,sans-Serif" font-size="10.00">initializer_list</text>
</g>
<!-- Node12&#45;&gt;Node15 -->
<g id="edge18" class="edge"><title>Node12&#45;&gt;Node15</title>
<path fill="none" stroke="midnightblue" d="M580.482,-56.083C582.072,-48.9272 584.359,-38.6353 586.346,-29.6911"/>
<polygon fill="midnightblue" stroke="midnightblue" points="589.803,-30.2722 588.555,-19.7511 582.969,-28.7537 589.803,-30.2722"/>
</g>
<!-- Node16&#45;&gt;Node13 -->
<g id="edge21" class="edge"><title>Node16&#45;&gt;Node13</title>
<path fill="none" stroke="midnightblue" d="M830.309,-56.324C813.149,-47.6641 786.554,-34.2424 766.753,-24.249"/>
<polygon fill="midnightblue" stroke="midnightblue" points="768.153,-21.0354 757.649,-19.6545 764.999,-27.2847 768.153,-21.0354"/>
</g>
<!-- Node17 -->
<g id="node17" class="node"><title>Node17</title>
<polygon fill="white" stroke="#bfbfbf" points="1036.5,-0.5 1036.5,-19.5 1080.5,-19.5 1080.5,-0.5 1036.5,-0.5"/>
<text text-anchor="middle" x="1058.5" y="-7.5" font-family="Helvetica,sans-Serif" font-size="10.00">thread</text>
</g>
<!-- Node16&#45;&gt;Node17 -->
<g id="edge20" class="edge"><title>Node16&#45;&gt;Node17</title>
<path fill="none" stroke="midnightblue" d="M882.782,-56.5944C917.087,-48.33 970.9,-35.1247 1026.2,-20.2803"/>
<polygon fill="midnightblue" stroke="midnightblue" points="1027.43,-23.5735 1036.18,-17.5894 1025.61,-16.8152 1027.43,-23.5735"/>
</g>
<!-- Node18 -->
<g id="node18" class="node"><title>Node18</title>
<polygon fill="white" stroke="#bfbfbf" points="783,-0.5 783,-19.5 842,-19.5 842,-0.5 783,-0.5"/>
<text text-anchor="middle" x="812.5" y="-7.5" font-family="Helvetica,sans-Serif" font-size="10.00">functional</text>
</g>
<!-- Node16&#45;&gt;Node18 -->
<g id="edge22" class="edge"><title>Node16&#45;&gt;Node18</title>
<path fill="none" stroke="midnightblue" d="M841.72,-56.083C836.828,-48.5341 829.673,-37.4948 823.667,-28.2298"/>
<polygon fill="midnightblue" stroke="midnightblue" points="826.548,-26.239 818.172,-19.7511 820.674,-30.0463 826.548,-26.239"/>
</g>
<!-- Node19 -->
<g id="node19" class="node"><title>Node19</title>
<polygon fill="white" stroke="#bfbfbf" points="860.5,-0.5 860.5,-19.5 904.5,-19.5 904.5,-0.5 860.5,-0.5"/>
<text text-anchor="middle" x="882.5" y="-7.5" font-family="Helvetica,sans-Serif" font-size="10.00">mutex</text>
</g>
<!-- Node16&#45;&gt;Node19 -->
<g id="edge23" class="edge"><title>Node16&#45;&gt;Node19</title>
<path fill="none" stroke="midnightblue" d="M853.28,-56.083C858.172,-48.5341 865.327,-37.4948 871.333,-28.2298"/>
<polygon fill="midnightblue" stroke="midnightblue" points="874.326,-30.0463 876.828,-19.7511 868.452,-26.239 874.326,-30.0463"/>
</g>
<!-- Node20 -->
<g id="node20" class="node"><title>Node20</title>
<polygon fill="white" stroke="#bfbfbf" points="923,-0.5 923,-19.5 1018,-19.5 1018,-0.5 923,-0.5"/>
<text text-anchor="middle" x="970.5" y="-7.5" font-family="Helvetica,sans-Serif" font-size="10.00">condition_variable</text>
</g>
<!-- Node16&#45;&gt;Node20 -->
<g id="edge24" class="edge"><title>Node16&#45;&gt;Node20</title>
<path fill="none" stroke="midnightblue" d="M866.99,-56.4435C887.142,-47.5961 918.823,-33.6875 941.831,-23.5865"/>
<polygon fill="midnightblue" stroke="midnightblue" points="943.352,-26.7411 951.101,-19.5164 940.538,-20.3316 943.352,-26.7411"/>
</g>
</g>
</svg>
